<svg width="104" height="31" viewBox="0 0 104 31" fill="none" xmlns="http://www.w3.org/2000/svg">
<mask id="mask0_24_153" style="mask-type:luminance" maskUnits="userSpaceOnUse" x="0" y="0" width="104" height="31">
<path d="M104 0H0V30.4799H104V0Z" fill="white"/>
</mask>
<g mask="url(#mask0_24_153)">
<path d="M103.635 9.66963H101.334V6.89338C101.334 6.74629 101.269 6.61059 101.154 6.52092C101.043 6.43382 100.901 6.40286 100.766 6.43683L98.7411 6.93574C98.5338 6.98692 98.3891 7.17466 98.3891 7.3925V9.66963H97.2353C96.9805 9.66963 96.7732 9.88124 96.7732 10.1414V11.8216C96.7732 12.0818 96.9805 12.2936 97.2355 12.2936H98.3891V19.0721C98.4153 21.9535 100.257 22.3505 102.242 22.3505C102.438 22.3505 102.635 22.3449 102.834 22.3389C103.035 22.3329 103.239 22.3266 103.45 22.3266L103.473 22.3251C103.744 22.2903 103.912 22.1008 103.912 21.8307V20.0304C103.912 19.7702 103.705 19.5588 103.45 19.5588H102.753C101.745 19.5588 101.334 19.1113 101.334 18.0143V12.2936H103.635C103.89 12.2936 104.097 12.0818 104.097 11.8216V10.1414C104.097 9.88124 103.89 9.66963 103.635 9.66963Z" fill="white"/>
<path d="M91.2558 9.47754C90.0507 9.47754 89.1063 9.84936 88.4436 10.5833V10.1414C88.4436 9.87237 88.2449 9.66958 87.9814 9.66958H85.8451C85.5813 9.66958 85.3826 9.87237 85.3826 10.1414V21.8307C85.3826 22.0997 85.5813 22.3028 85.8451 22.3028H87.9814C88.2449 22.3028 88.4436 22.0997 88.4436 21.8307V14.5099C88.4436 13.1555 89.2657 12.2454 90.4895 12.2454C91.7178 12.2454 92.512 13.1437 92.512 14.5338V21.8307C92.512 22.0997 92.7105 22.3028 92.9741 22.3028H95.1106C95.3742 22.3028 95.5729 22.0997 95.5729 21.8307V13.9579C95.5729 11.2362 93.8784 9.47754 91.2558 9.47754Z" fill="white"/>
<path d="M80.4829 14.734H75.9357C75.9624 14.3325 76.0139 14.0521 76.1057 13.8063L76.11 13.7936C76.406 12.7808 77.1159 12.2455 78.1629 12.2455C79.2905 12.2455 80.0889 12.8595 80.3568 13.9425C80.4137 14.1179 80.4582 14.4009 80.4829 14.734ZM78.1629 9.47766C75.6814 9.47766 73.8011 10.8823 73.1339 13.2311C72.9152 13.9321 72.8214 14.8072 72.8472 15.902C72.8472 17.2482 73.0265 18.3316 73.3936 19.2094C74.2063 21.2955 75.9813 22.471 78.393 22.5185C78.4224 22.519 78.4519 22.5192 78.4815 22.5192C80.4889 22.5192 82.2107 21.688 83.2173 20.2261C83.3597 20.0051 83.3227 19.7838 83.1122 19.6025L81.6732 18.3793C81.5394 18.2638 81.4148 18.2531 81.3334 18.2625C81.2474 18.2737 81.1211 18.3215 81.0068 18.4866C80.4344 19.3255 79.6415 19.7507 78.6533 19.7507C77.3052 19.7289 76.4489 19.1825 76.1016 18.1083C75.9993 17.8757 75.9544 17.5376 75.9149 17.1662H83.1094C83.385 17.1662 83.5704 16.9778 83.5717 16.697C83.596 15.8858 83.5925 15.2489 83.5008 14.585C83.1105 11.1959 81.3147 9.47766 78.1629 9.47766Z" fill="white"/>
<path d="M67.9727 15.8784C67.9727 17.202 67.9226 17.5435 67.8158 17.963C67.5727 18.9677 66.8369 19.544 65.7968 19.544C64.7687 19.544 63.9696 18.94 63.6547 17.9161C63.555 17.6581 63.436 17.0996 63.436 15.9022C63.436 14.956 63.5198 14.3096 63.7041 13.8561C64.0442 12.8271 64.7986 12.2368 65.7736 12.2368C66.8062 12.2368 67.5609 12.8361 67.7948 13.8496C67.9211 14.2853 67.9727 14.5907 67.9727 15.8784ZM70.562 9.66951H68.4339C68.1709 9.66951 67.9727 9.87187 67.9727 10.1403V10.4575C67.2661 9.79897 66.3472 9.47833 65.1721 9.47833C63.0932 9.47833 61.3953 10.7549 60.7427 12.8051C60.4054 13.7705 60.3623 14.9674 60.3623 15.9022C60.3623 17.1293 60.4598 18.0637 60.6707 18.8482C61.4065 21.307 63.5621 22.1829 65.3341 22.1829C66.4382 22.1829 67.3252 21.8711 67.9722 21.2578C67.9602 22.2853 67.6913 23.0248 67.1512 23.517C66.4438 24.1615 65.2467 24.3934 63.4738 24.2269C63.0156 24.2269 62.9662 24.5392 62.9662 24.6669L62.8968 26.6341C62.8968 26.9094 63.0517 27.0937 63.3159 27.1281C63.755 27.1735 64.1821 27.1963 64.5943 27.1963C66.5772 27.1963 68.2285 26.6744 69.3258 25.6843C70.452 24.6675 71.023 23.1783 71.023 21.258V10.1403C71.023 9.87187 70.8247 9.66951 70.562 9.66951Z" fill="white"/>
<path d="M59.3247 9.71909C59.0002 9.58899 58.6425 9.52576 58.2311 9.52576C57.1386 9.52576 56.249 9.97048 55.5814 10.8487V10.1416C55.5814 9.88145 55.3741 9.66963 55.1191 9.66963H52.9826C52.7276 9.66963 52.5203 9.88124 52.5203 10.1414V21.8307C52.5203 22.0909 52.7278 22.3028 52.9828 22.3028H55.1191C55.3741 22.3028 55.5814 22.0909 55.5814 21.8307V15.038C55.5814 13.5736 56.6374 12.8572 57.6992 12.7957C58.0679 12.7439 58.2764 12.7609 58.5117 12.8076C58.7742 12.8596 59.0221 12.6983 59.0807 12.4401L59.6474 10.3548C59.705 10.0894 59.5662 9.81608 59.3247 9.71909Z" fill="white"/>
<path d="M47.3045 16.8301V17.8944C47.3045 19.1617 45.9929 19.9188 44.7246 19.9188C43.8705 19.9188 42.9576 19.5447 42.9576 18.4944C42.9576 17.4368 43.8555 16.8301 45.4213 16.8301H47.3045ZM45.2821 9.47766C42.9217 9.47766 41.0376 10.5606 40.4821 12.2369C40.4348 12.3795 40.4511 12.5343 40.5265 12.6621C40.5972 12.7817 40.7141 12.8649 40.8481 12.8913L42.9539 13.4203C43.1745 13.461 43.3941 13.3425 43.4789 13.1386C43.7197 12.5627 44.3846 12.2455 45.3517 12.2455C46.6292 12.2455 47.3045 12.8625 47.3045 14.03V14.5422H44.8872C41.7478 14.5422 39.8733 16.0914 39.8733 18.6866C39.8733 21.4943 42.0317 22.4947 44.0514 22.4947C45.406 22.4947 46.5256 22.0912 47.3045 21.3283V21.8308C47.3045 22.091 47.5121 22.3026 47.767 22.3026H49.9031C50.1581 22.3026 50.3656 22.091 50.3656 21.8308V13.7421C50.3656 11.2312 48.2753 9.47766 45.2821 9.47766Z" fill="white"/>
<path d="M20.9338 0H12.3648C12.0785 0 11.849 0.238063 11.8428 0.533975C11.6697 8.85176 7.45953 16.7463 0.212983 22.3381C-0.0170836 22.5155 -0.0694978 22.8491 0.0987018 23.0893L5.11225 30.2546C5.28281 30.4985 5.61513 30.5535 5.84907 30.3744C10.3801 26.9009 14.0247 22.7106 16.6493 18.0661C19.2739 22.7106 22.9186 26.9009 27.4497 30.3744C27.6834 30.5535 28.0158 30.4985 28.1865 30.2546L33.2001 23.0893C33.3681 22.8491 33.3157 22.5155 33.0858 22.3381C25.839 16.7463 21.6289 8.85176 21.456 0.533975C21.4497 0.238063 21.2201 0 20.9338 0Z" fill="#FF875B"/>
</g>
</svg>
