<svg width="168" height="38" viewBox="0 0 168 38" fill="none" xmlns="http://www.w3.org/2000/svg">
<path fill-rule="evenodd" clip-rule="evenodd" d="M0.109619 18.8967C0.109619 29.2591 8.59808 37.659 19.0693 37.659C29.5406 37.659 38.0296 29.2591 38.0296 18.8967C38.0296 8.53454 29.5406 0.134521 19.0693 0.134521C8.59808 0.134521 0.109619 8.53454 0.109619 18.8967Z" fill="#0C0C4F"/>
<path fill-rule="evenodd" clip-rule="evenodd" d="M10.707 14.4766L11.175 13.0457C11.2702 12.7547 11.5023 12.5282 11.7974 12.4389L13.2505 11.9967C13.4516 11.9359 13.4532 11.6551 13.2537 11.5911L11.8072 11.128C11.5137 11.0338 11.2848 10.8041 11.1941 10.512L10.7478 9.07416C10.6863 8.87566 10.4026 8.8735 10.3379 9.07146L9.86986 10.5024C9.77472 10.7929 9.54262 11.0193 9.24744 11.1092L7.79441 11.5508C7.59329 11.6121 7.5911 11.8924 7.79114 11.9564L9.23765 12.4195C9.53119 12.5137 9.76006 12.7439 9.85082 13.036L10.2971 14.4734C10.3585 14.6724 10.6423 14.6746 10.707 14.4766Z" fill="#FAFAFA"/>
<path fill-rule="evenodd" clip-rule="evenodd" d="M33.6733 13.6437C33.0743 12.9809 32.1395 12.6077 31.2306 12.4546C30.3145 12.3076 29.3538 12.3213 28.4495 12.4803C26.6195 12.7866 24.957 13.5364 23.5069 14.4615C22.7539 14.9155 22.1118 15.4408 21.4465 15.9758C21.126 16.2463 20.8337 16.5345 20.5294 16.8185L19.6977 17.6373C18.794 18.572 17.9033 19.4234 17.0416 20.1291C16.1763 20.8315 15.3673 21.365 14.5701 21.7376C13.7733 22.1121 12.9208 22.3323 11.8097 22.3676C10.7083 22.406 9.40515 22.2093 8.01127 21.8846C6.60991 21.5614 5.13833 21.1006 3.4939 20.7041C4.06766 22.2794 4.93174 23.6714 6.04106 24.9439C7.16342 26.1943 8.56493 27.3341 10.3653 28.0834C12.1397 28.8496 14.3695 29.1246 16.4545 28.7097C18.545 28.3116 20.3795 27.3543 21.8624 26.2473C23.3491 25.1287 24.5519 23.8547 25.5659 22.5303C25.8457 22.1643 25.9938 21.9595 26.1963 21.6735L26.7563 20.8528C27.1453 20.3452 27.4995 19.7672 27.8845 19.2643C28.6395 18.2109 29.384 17.1588 30.249 16.1894C30.6843 15.6978 31.1435 15.2275 31.6854 14.7756C31.9556 14.555 32.2477 14.3391 32.5712 14.1446C32.8995 13.9349 33.2463 13.7707 33.6733 13.6437Z" fill="#EC796B"/>
<path fill-rule="evenodd" clip-rule="evenodd" d="M33.6731 13.6438C33.0296 12.0369 31.8332 10.6842 30.2274 9.68607C28.6314 8.69888 26.4147 8.1951 24.218 8.62454C23.1329 8.83224 22.0816 9.23209 21.159 9.76457C20.2405 10.2949 19.4175 10.9334 18.705 11.6183C18.3494 11.9619 18.0265 12.3204 17.7058 12.6808L16.8745 13.7297L15.5905 15.418C13.9536 17.5903 12.1909 20.1361 9.29827 20.8904C6.45849 21.6309 5.22684 20.9751 3.49365 20.7041C3.81055 21.5138 4.20312 22.3001 4.73529 22.9918C5.25756 23.6976 5.87443 24.3603 6.64137 24.9287C7.02897 25.2016 7.43817 25.4709 7.89264 25.6991C8.34504 25.92 8.83293 26.1143 9.35368 26.2603C10.3895 26.5413 11.5557 26.6399 12.6848 26.4886C13.8145 26.3394 14.8942 25.9853 15.8381 25.5148C16.7889 25.0486 17.6171 24.481 18.3566 23.882C19.8268 22.6739 20.9703 21.339 21.9362 19.9896C22.4221 19.315 22.8631 18.6276 23.271 17.94L23.751 17.1215C23.8978 16.8822 24.0462 16.6414 24.1969 16.4172C24.8053 15.5164 25.4003 14.7941 26.1229 14.2519C26.8355 13.6957 27.8279 13.2848 29.1539 13.1893C30.4743 13.0928 31.9988 13.2712 33.6731 13.6438Z" fill="#FAFAFA"/>
<path fill-rule="evenodd" clip-rule="evenodd" d="M26.5291 26.9952C26.5291 28.1754 27.4965 29.1327 28.6891 29.1327C29.8819 29.1327 30.8479 28.1754 30.8479 26.9952C30.8479 25.8151 29.8819 24.8577 28.6891 24.8577C27.4965 24.8577 26.5291 25.8151 26.5291 26.9952Z" fill="#EC796B"/>
<path d="M75.5517 13.6424V11.4913C75.5517 11.4061 75.4818 11.3369 75.3957 11.3369H63.0105C62.9243 11.3369 62.8545 11.4061 62.8545 11.4913V13.6424H67.888V27.4035C67.888 27.4887 67.9579 27.5578 68.0443 27.5578H70.3619C70.4481 27.5578 70.5179 27.4887 70.5179 27.4035V13.6424H75.5517Z" fill="white"/>
<path d="M119.803 11.66L119.862 11.5954C119.954 11.4962 119.883 11.3369 119.747 11.3369H116.868L116.809 11.4039C116.427 11.8426 115.952 12.3582 115.384 12.9509C114.83 13.529 114.239 14.1377 113.608 14.7769C112.978 15.4159 112.34 16.0548 111.694 16.6938C111.177 17.1928 110.695 17.6526 110.248 18.0734V11.3369H107.774C107.688 11.3369 107.618 11.4061 107.618 11.4913V27.4035C107.618 27.4887 107.688 27.5578 107.774 27.5578H110.248V20.1991C110.791 20.5509 111.346 20.9626 111.913 21.4346L111.914 21.4353L111.915 21.4359C112.602 21.9949 113.274 22.6071 113.931 23.2726L113.933 23.2742L113.934 23.2757C114.606 23.9255 115.24 24.6133 115.836 25.3386L115.836 25.3396L115.837 25.3403C116.433 26.0507 116.959 26.7601 117.416 27.4688L117.474 27.5578H120.28C120.4 27.5578 120.475 27.4296 120.415 27.3265L120.382 27.2688C119.961 26.5435 119.432 25.7818 118.797 24.9843C118.177 24.1877 117.512 23.4068 116.801 22.6414C116.089 21.8759 115.361 21.156 114.618 20.4819C113.945 19.8713 113.302 19.3471 112.689 18.9099C113.21 18.4062 113.763 17.8655 114.347 17.2875C114.994 16.6472 115.641 15.9992 116.288 15.3437C116.951 14.6728 117.583 14.0248 118.184 13.3996L118.184 13.3987L118.185 13.3979C118.786 12.7577 119.325 12.1784 119.803 11.66Z" fill="white"/>
<path d="M133.976 27.4635L134.033 27.5578H136.053C136.139 27.5578 136.209 27.4887 136.209 27.4035V11.4913C136.209 11.4061 136.139 11.3369 136.053 11.3369H133.625V22.5709C133.204 21.9068 132.714 21.1758 132.157 20.3781C131.447 19.3399 130.684 18.2867 129.867 17.2185C129.065 16.1351 128.248 15.0897 127.415 14.0824C126.597 13.059 125.824 12.1639 125.096 11.3977L125.038 11.3369H123.137C123.051 11.3369 122.981 11.4061 122.981 11.4913V27.4035C122.981 27.4887 123.051 27.5578 123.137 27.5578H125.564V15.5234C125.896 15.9114 126.25 16.3413 126.624 16.8133C127.131 17.4511 127.653 18.1347 128.19 18.8642L128.191 18.865L128.192 18.8658C128.729 19.5797 129.266 20.3241 129.803 21.099L129.804 21.1001L129.805 21.1011C130.358 21.8764 130.888 22.6441 131.395 23.404L131.395 23.4047L131.396 23.4055C131.902 24.1497 132.37 24.8708 132.8 25.5688L132.8 25.57L132.801 25.5714C133.247 26.2711 133.638 26.9016 133.976 27.4635Z" fill="white"/>
<path d="M140.021 11.3369C139.935 11.3369 139.865 11.4061 139.865 11.4913V27.4035C139.865 27.4887 139.935 27.5578 140.021 27.5578H150.444C150.53 27.5578 150.6 27.4887 150.6 27.4035V25.2755H142.495V20.1774H149.191V17.9405H142.495V13.6195H150.023V11.4913C150.023 11.4061 149.953 11.3369 149.867 11.3369H140.021Z" fill="white"/>
<path d="M165.665 13.6424V11.4913C165.665 11.4061 165.595 11.3369 165.509 11.3369H153.124C153.037 11.3369 152.968 11.4061 152.968 11.4913V13.6424H158.001V27.5578H160.631V13.6424H165.665Z" fill="white"/>
<path d="M51.2497 27.3604L51.2493 27.3602C50.2953 26.9579 49.5018 26.3836 48.8728 25.6364L48.8718 25.6355L48.8713 25.6348C48.2485 24.8781 47.8444 23.9863 47.6565 22.9638C47.6471 22.9126 47.6589 22.8599 47.6893 22.8175C47.7196 22.7752 47.7661 22.7467 47.818 22.7386L49.9158 22.4114C50.0152 22.3959 50.11 22.4576 50.1349 22.554C50.3901 23.5342 50.9147 24.295 51.7103 24.8465C52.5177 25.3932 53.47 25.6697 54.5749 25.6697C55.2918 25.6697 55.9324 25.56 56.4995 25.3443C57.0733 25.1215 57.5185 24.8087 57.8435 24.4102C58.1634 24.0181 58.3247 23.5539 58.3247 23.0082C58.3247 22.6695 58.2642 22.3922 58.1517 22.1694C58.1505 22.1674 58.1495 22.1654 58.1485 22.1633C58.0389 21.9259 57.8857 21.7277 57.6887 21.5661C57.6868 21.5646 57.6849 21.563 57.6829 21.5614C57.4849 21.3864 57.2577 21.2385 56.9999 21.1181C56.7364 20.9949 56.4613 20.8933 56.1753 20.8134L56.1726 20.8127L51.988 19.5827C51.5221 19.4445 51.0717 19.2716 50.6368 19.064L50.6356 19.0635L50.6341 19.0628C50.1925 18.8443 49.797 18.5744 49.4483 18.2529L49.4471 18.2518L49.4466 18.2513C49.0931 17.9174 48.8128 17.5204 48.6052 17.0624L48.6047 17.0613C48.394 16.5878 48.2917 16.0374 48.2917 15.4152C48.2917 14.4176 48.5524 13.5562 49.0821 12.8415L49.0823 12.8411C49.6141 12.1261 50.3315 11.5827 51.2272 11.2094C52.1217 10.8368 53.1251 10.6564 54.2344 10.6641C55.3588 10.6717 56.3701 10.8713 57.2646 11.2671C58.1661 11.6551 58.9137 12.2153 59.5041 12.9475C60.1036 13.6812 60.5032 14.5568 60.7065 15.5694C60.7165 15.6204 60.7055 15.6733 60.676 15.7161C60.6462 15.759 60.6004 15.7882 60.5485 15.7971L58.3938 16.1694C58.3427 16.1783 58.2901 16.1666 58.2477 16.137C58.2054 16.1074 58.1766 16.0623 58.168 16.0117C58.059 15.3799 57.8176 14.844 57.4458 14.3985L57.4439 14.3959C57.0765 13.9397 56.6154 13.5901 56.0581 13.3465L56.0562 13.3457C55.4977 13.0945 54.8826 12.9641 54.208 12.9568C53.5614 12.9495 52.9835 13.0514 52.4711 13.2584C51.9575 13.4661 51.5565 13.7526 51.2608 14.1149L51.2596 14.1163C50.9697 14.4648 50.8252 14.865 50.8252 15.3249C50.8252 15.7815 50.9567 16.1338 51.2058 16.4001C51.4744 16.6798 51.8049 16.9056 52.1999 17.0765C52.6187 17.2466 53.0253 17.3867 53.4196 17.4972L53.4205 17.4975L56.5434 18.3885C56.9075 18.4882 57.3232 18.6254 57.79 18.7996C58.2786 18.979 58.7497 19.2319 59.2033 19.5568C59.6704 19.8836 60.0537 20.32 60.3549 20.8611C60.6645 21.4093 60.8128 22.0911 60.8128 22.8954C60.8128 23.7039 60.6477 24.4306 60.3124 25.0707C59.9869 25.7067 59.53 26.2409 58.9439 26.6719L58.9427 26.6729C58.36 27.0937 57.6853 27.4115 56.9212 27.6276C56.157 27.8514 55.3403 27.9625 54.4725 27.9625C53.2871 27.9625 52.2119 27.763 51.2497 27.3604Z" fill="white"/>
<path fill-rule="evenodd" clip-rule="evenodd" d="M86.441 25.4163L86.4412 25.417L86.4414 25.4177C86.6728 26.0744 86.9198 26.7463 87.1818 27.4331L87.2296 27.5578H89.8677C89.9759 27.5578 90.0513 27.4514 90.0143 27.3507L89.9953 27.299C89.3793 25.6229 88.8018 24.0761 88.2628 22.6588C87.7238 21.2257 87.1922 19.8687 86.6682 18.5876C86.1597 17.3066 85.6509 16.0863 85.1421 14.9267C84.6316 13.7481 84.0945 12.5811 83.535 11.4245C83.5091 11.371 83.4544 11.3369 83.3944 11.3369H81.2901C81.2301 11.3369 81.1753 11.371 81.1494 11.4245C80.59 12.5811 80.0529 13.748 79.5424 14.9267C79.0338 16.0859 78.5174 17.3059 77.9937 18.5867L77.9932 18.5876L77.993 18.5885C77.4844 19.8692 76.9607 21.2259 76.4217 22.6587C75.8826 24.0761 75.305 25.6229 74.6891 27.299L74.6702 27.3507C74.6332 27.4514 74.7086 27.5578 74.8168 27.5578H77.3423H77.9966L78.0544 27.4963C78.6635 26.8491 79.3446 26.2138 80.0975 25.5909L80.0982 25.5901L80.099 25.5897C80.8547 24.951 81.6429 24.3587 82.4632 23.8127L82.4649 23.8115L82.4668 23.8101C83.2749 23.2452 84.088 22.7383 84.9062 22.2892L84.9071 22.2886L84.9081 22.2881C85.0288 22.2202 85.1486 22.1541 85.2678 22.09L85.7255 23.3842L85.7258 23.3846L85.7262 23.3858C85.972 24.0703 86.2103 24.7473 86.441 25.4163ZM83.603 17.722L83.6034 17.7233L83.6039 17.7246C83.8569 18.3583 84.1098 19.004 84.3628 19.6619C83.7143 19.9781 83.0279 20.3613 82.3036 20.8109C81.4055 21.3682 80.5151 21.9758 79.6322 22.6336C79.3898 22.8141 79.151 22.9964 78.9155 23.1806L79.4966 21.5381C79.9708 20.2212 80.445 18.9496 80.9193 17.7233C81.3556 16.6173 81.8097 15.5536 82.282 14.532C82.7402 15.5532 83.1806 16.6165 83.603 17.722Z" fill="white"/>
<path fill-rule="evenodd" clip-rule="evenodd" d="M92.6885 11.2153C92.6023 11.2153 92.5325 11.2844 92.5325 11.3697V27.4132C92.5325 27.4984 92.6023 27.5676 92.6885 27.5676H94.9169V21.6689H98.1722C98.5385 22.1029 98.8958 22.5569 99.2441 23.031L99.2453 23.0328L99.2467 23.0346C99.8165 23.774 100.343 24.5451 100.826 25.3484L100.827 25.3491L100.827 25.35C101.265 26.0609 101.647 26.7629 101.974 27.4562L102.026 27.5676H104.663C104.776 27.5676 104.852 27.4524 104.805 27.3507C104.501 26.6931 104.172 26.049 103.808 25.4217C103.312 24.5449 102.768 23.6769 102.175 22.8176C101.837 22.3265 101.491 21.8494 101.138 21.3864C102.122 21.0888 102.9 20.5506 103.463 19.7696L103.464 19.769C104.139 18.8236 104.474 17.7119 104.474 16.442C104.474 15.5694 104.321 14.771 104.011 14.0496C103.699 13.3176 103.231 12.7106 102.606 12.2317C101.987 11.7503 101.223 11.4439 100.323 11.3066C100.113 11.2683 99.8966 11.2454 99.6732 11.2376C99.455 11.2227 99.2647 11.2152 99.1027 11.2152C98.4192 11.2152 97.7354 11.2151 97.0517 11.215C95.5973 11.2149 94.1429 11.2148 92.6885 11.2153ZM102.045 16.442C102.045 16.8635 101.974 17.2782 101.832 17.687C101.693 18.0796 101.47 18.4237 101.163 18.7211C100.871 19.0027 100.487 19.2024 100 19.3141C99.8462 19.3488 99.6802 19.3734 99.5018 19.3875L99.5016 19.3875L99.5011 19.3875C99.3259 19.402 99.1709 19.409 99.0355 19.409H94.9169V13.475H99.0355C99.1709 13.475 99.3259 13.4821 99.5011 13.4966L99.5054 13.4969L99.5095 13.4971C99.683 13.5039 99.8438 13.5279 99.9926 13.568L99.9977 13.5694L100.002 13.5704C100.488 13.6747 100.87 13.8737 101.161 14.1614L101.162 14.1622L101.163 14.163C101.47 14.4599 101.692 14.8074 101.832 15.2077L101.832 15.2082L101.832 15.2087C101.974 15.6096 102.045 16.0205 102.045 16.442Z" fill="white"/>
</svg>
